# xmcd CD database file
#
# Track frame offsets:
#	150
#	16190
#	39871
#	60144
#	79352
#	99922
#	119613
#	137701
#	160504
#	184292
#	204625
#	225758
#
# Disc length: 3319 seconds
#
# Revision: 0
# Processed by: cddbd v1.5.1PL0 Copyright (c) Steve Scherf et al.
# Submitted via: CDex 1.51
#
DISCID=880cf50c
DTITLE=Warne Marsh - Jazz of Two Cities 
DYEAR=1956
DGENRE=Jazz
TTITLE0=Smog eyes
TTITLE1=Ear conditioning
TTITLE2=Lover man
TTITLE3=Quintessence
TTITLE4=Jazz of two cities 
TTITLE5=Dixie's dilemma
TTITLE6=Tschaikovsky's Opus #42-3°
TTITLE7=I never knew
TTITLE8=Ear conditioning (mono master)
TTITLE9=Lover man (mono master)
TTITLE10=Jazz of two cities (mono take)
TTITLE11=I never knew (mono master)
EXTD=YEAR: 1956
EXTT0=
EXTT1=
EXTT2=
EXTT3=
EXTT4=
EXTT5=
EXTT6=
EXTT7=
EXTT8=
EXTT9=
EXTT10=
EXTT11=
PLAYORDER=
